<svg xmlns="http://www.w3.org/2000/svg" xmlns:xlink="http://www.w3.org/1999/xlink" viewBox="0 0 32 32" fill="none">
<path d="M12.656 5.171c-0.915 0.093-1.334 0.176-2.010 0.397-0.803 0.266-1.616 0.691-2.31 1.213-0.394 0.298-1.030 0.912-1.344 1.299-1.594 1.962-2.16 4.525-1.552 6.992 0.874 3.53 4.070 6.016 7.731 6.016 3.827 0 7.117-2.733 7.821-6.496 0.243-1.296 0.144-2.736-0.275-3.99-0.394-1.187-1.018-2.202-1.901-3.085-1.235-1.242-2.762-2.013-4.49-2.272-0.403-0.058-1.386-0.102-1.67-0.074zM13.974 6.864c2.678 0.352 4.838 2.358 5.37 4.992 0.275 1.366 0.102 2.768-0.496 4.010-1.306 2.707-4.31 4.109-7.248 3.376-2.109-0.525-3.843-2.182-4.48-4.285-0.198-0.656-0.25-1.018-0.253-1.821 0-0.765 0.026-0.992 0.205-1.664 0.272-1.034 0.787-1.942 1.549-2.73 1.011-1.050 2.323-1.702 3.782-1.891 0.365-0.045 1.165-0.038 1.571 0.013z"></path>
<path d="M9.744 9.35c-0.131 0.045-0.458 0.371-0.704 0.698-0.426 0.576-0.726 1.229-0.899 1.968-0.083 0.358-0.090 0.432-0.093 1.072 0 0.541 0.013 0.752 0.058 0.992 0.176 0.909 0.598 1.763 1.219 2.467 0.33 0.378 0.538 0.458 0.842 0.32 0.189-0.090 0.307-0.275 0.307-0.493 0-0.205-0.035-0.272-0.256-0.515-0.989-1.072-1.318-2.579-0.87-3.981 0.173-0.541 0.416-0.96 0.842-1.456 0.278-0.326 0.336-0.464 0.275-0.682-0.067-0.237-0.326-0.435-0.56-0.426-0.035 0-0.106 0.016-0.16 0.035z"></path>
<path d="M20.112 18.522c-0.47 0.611-1.35 1.45-1.968 1.869l-0.080 0.051 2.992 2.998c1.645 1.645 3.066 3.043 3.155 3.107 0.522 0.362 1.28 0.378 1.811 0.038 0.755-0.48 0.995-1.466 0.547-2.243-0.058-0.096-1.187-1.248-3.114-3.174-1.664-1.664-3.030-3.024-3.040-3.024s-0.144 0.17-0.304 0.378z"></path>
<path d="M0.512 24.493c0 0.077 0.016 0.115 0.045 0.115 0.026 0 0.064 0.006 0.090 0.016s0.058-0.019 0.080-0.083c0.045-0.118 0.122-0.109 0.122 0.013-0.003 0.048 0.010 0.086 0.022 0.086 0.051 0 0.067-0.099 0.029-0.179-0.048-0.106-0.163-0.093-0.221 0.029-0.045 0.093-0.102 0.090-0.102-0.010 0-0.032-0.013-0.070-0.032-0.080-0.019-0.013-0.032 0.026-0.032 0.093z"></path>
<path d="M0.864 24.784v0.080l-0.064-0.064c-0.035-0.035-0.106-0.064-0.16-0.064-0.074 0-0.099 0.016-0.115 0.077-0.019 0.080 0.003 0.147 0.048 0.147 0.013 0 0.022-0.032 0.022-0.074-0.003-0.102 0.109-0.109 0.205-0.006 0.102 0.109 0.128 0.102 0.128-0.048 0-0.070-0.013-0.128-0.032-0.128-0.016 0-0.032 0.035-0.032 0.080z"></path>
<path d="M0.752 25.056c-0.013 0.019-0.051 0.026-0.083 0.016-0.112-0.035-0.221 0.134-0.125 0.192 0.064 0.038 0.298 0.048 0.342 0.013 0.058-0.048 0.051-0.141-0.010-0.202-0.058-0.061-0.096-0.064-0.125-0.019zM0.666 25.174c-0.013 0.070-0.070 0.064-0.083-0.003-0.006-0.032 0.010-0.051 0.042-0.051s0.048 0.022 0.042 0.054zM0.858 25.174c-0.006 0.032-0.032 0.058-0.058 0.058s-0.051-0.026-0.058-0.058c-0.006-0.038 0.010-0.054 0.058-0.054s0.064 0.016 0.058 0.054z"></path>
<path d="M0.714 25.414c-0.019 0.022-0.042 0.070-0.048 0.106-0.013 0.058-0.019 0.054-0.051-0.026-0.019-0.048-0.051-0.086-0.070-0.086-0.054 0-0.035 0.054 0.051 0.157 0.109 0.128 0.253 0.138 0.307 0.016 0.026-0.058 0.029-0.096 0.003-0.134-0.042-0.070-0.15-0.086-0.192-0.032zM0.848 25.523c0 0.032-0.026 0.064-0.054 0.070-0.058 0.010-0.083-0.086-0.035-0.134 0.038-0.035 0.090 0 0.090 0.064z"></path>
<path d="M0.512 25.84c0 0.080 0.016 0.144 0.032 0.144 0.019 0 0.032-0.045 0.032-0.096 0-0.109 0.003-0.112 0.122-0.051 0.131 0.067 0.23 0.090 0.23 0.058 0-0.026-0.342-0.198-0.397-0.198-0.010 0-0.019 0.064-0.019 0.144z"></path>
<path d="M0.752 26.048c-0.010 0.016-0.061 0.022-0.112 0.013-0.080-0.019-0.096-0.010-0.115 0.067-0.013 0.048-0.006 0.099 0.016 0.122 0.048 0.048 0.294 0.058 0.346 0.016 0.058-0.045 0.051-0.138-0.010-0.198-0.058-0.058-0.096-0.064-0.125-0.019zM0.666 26.166c-0.013 0.070-0.070 0.064-0.083-0.003-0.006-0.032 0.010-0.051 0.042-0.051s0.048 0.022 0.042 0.054zM0.858 26.166c-0.006 0.032-0.032 0.058-0.058 0.058s-0.051-0.026-0.058-0.058c-0.006-0.038 0.010-0.054 0.058-0.054s0.064 0.016 0.058 0.054z"></path>
<path d="M0.723 26.397c-0.010 0.013-0.054 0.019-0.096 0.013-0.064-0.013-0.083 0-0.099 0.064-0.022 0.083 0 0.15 0.045 0.15 0.016 0 0.019-0.035 0.010-0.080-0.010-0.058 0-0.080 0.038-0.080 0.029 0 0.051 0.022 0.051 0.048 0 0.070 0.054 0.058 0.074-0.019 0.026-0.093 0.102-0.058 0.102 0.045-0.003 0.096 0.038 0.115 0.070 0.035 0.045-0.118-0.131-0.278-0.195-0.176z"></path>
<path d="M0.566 26.746c-0.070 0.077-0.067 0.112 0.003 0.176 0.080 0.070 0.24 0.067 0.304-0.003 0.074-0.080 0.067-0.122-0.016-0.179-0.096-0.067-0.227-0.064-0.291 0.006zM0.813 26.771c0.077 0.029 0.061 0.106-0.026 0.128-0.099 0.022-0.211-0.010-0.211-0.067 0-0.067 0.131-0.102 0.237-0.061z"></path>
<path d="M0.723 27.069c-0.010 0.013-0.054 0.019-0.096 0.013-0.064-0.013-0.083 0-0.099 0.064-0.022 0.083 0 0.15 0.045 0.15 0.016 0 0.019-0.035 0.010-0.080-0.010-0.058 0-0.080 0.038-0.080 0.029 0 0.051 0.022 0.051 0.048 0 0.070 0.054 0.058 0.074-0.019 0.026-0.093 0.102-0.058 0.102 0.045-0.003 0.096 0.038 0.115 0.070 0.035 0.045-0.118-0.131-0.278-0.195-0.176z"></path>
<path d="M0.608 27.363c0 0.016-0.013 0.022-0.032 0.013-0.016-0.010-0.032-0.006-0.032 0.013 0 0.016 0.019 0.038 0.042 0.048 0.029 0.016 0.029 0.022 0 0.038-0.032 0.013-0.029 0.029 0.006 0.064 0.026 0.029 0.064 0.038 0.083 0.026 0.019-0.010 0.045-0.003 0.058 0.016 0.016 0.026 0.048 0.029 0.099 0.010 0.061-0.022 0.067-0.032 0.022-0.048-0.074-0.029-0.070-0.090 0.003-0.064 0.042 0.016 0.038 0.003-0.016-0.048-0.042-0.042-0.093-0.061-0.118-0.051-0.029 0.010-0.051 0.003-0.051-0.016s-0.013-0.035-0.032-0.035c-0.016 0-0.032 0.016-0.032 0.035zM0.736 27.488c0 0.016-0.013 0.032-0.032 0.032-0.016 0-0.032-0.016-0.032-0.032 0-0.019 0.016-0.032 0.032-0.032 0.019 0 0.032 0.013 0.032 0.032z"></path>
<path d="M0.432 27.904c0.010 0.019 0.154 0.032 0.323 0.032 0.179 0 0.301-0.013 0.301-0.032s-0.128-0.032-0.323-0.032c-0.205 0-0.314 0.013-0.301 0.032z"></path>
<path d="M0.608 28.17c0 0.029 0.032 0.074 0.070 0.099 0.070 0.048 0.067 0.051-0.080 0.051-0.112 0-0.15 0.013-0.15 0.048 0 0.038 0.048 0.048 0.24 0.048s0.24-0.010 0.24-0.048c0-0.029-0.029-0.048-0.070-0.051h-0.074l0.074-0.051c0.038-0.026 0.070-0.070 0.070-0.096 0-0.035-0.019-0.029-0.086 0.019l-0.083 0.067-0.077-0.070c-0.061-0.058-0.074-0.061-0.074-0.016z"></path>
<path d="M0.608 28.541c0 0.086 0.086 0.163 0.176 0.163 0.077 0 0.144-0.080 0.144-0.173 0-0.080-0.058-0.061-0.070 0.019-0.006 0.054-0.032 0.074-0.090 0.074s-0.083-0.019-0.090-0.074c-0.013-0.086-0.070-0.096-0.070-0.010z"></path>
<path d="M0.659 28.819c-0.061 0.058-0.064 0.090-0.019 0.176 0.067 0.125 0.288 0.051 0.288-0.096 0-0.051-0.096-0.131-0.16-0.131-0.032 0-0.083 0.022-0.109 0.051zM0.848 28.912c0 0.070-0.099 0.106-0.15 0.054-0.054-0.054-0.003-0.141 0.077-0.128 0.048 0.006 0.074 0.032 0.074 0.074z"></path>
<path d="M0.608 29.12c0 0.016-0.022 0.032-0.048 0.032s-0.048 0.013-0.048 0.032c0 0.016 0.019 0.032 0.045 0.032s0.051 0.019 0.061 0.038c0.013 0.032 0.022 0.032 0.058 0 0.022-0.019 0.090-0.038 0.147-0.038 0.083 0 0.106-0.013 0.106-0.064 0-0.035-0.013-0.064-0.032-0.064-0.016 0-0.032 0.013-0.032 0.032 0 0.016-0.042 0.032-0.096 0.032-0.051 0-0.096-0.016-0.096-0.032 0-0.019-0.013-0.032-0.032-0.032-0.016 0-0.032 0.013-0.032 0.032z"></path>
<path d="M0.678 29.408c-0.061 0.109-0.112 0.109-0.128 0.006-0.013-0.093-0.070-0.090-0.070 0.003 0 0.166 0.166 0.202 0.25 0.054 0.064-0.112 0.118-0.109 0.118 0.013-0.003 0.099 0.061 0.093 0.074-0.010 0.026-0.17-0.157-0.221-0.243-0.067z"></path>
<path d="M0.646 29.83c-0.090 0.090-0.019 0.218 0.122 0.218 0.045 0 0.099-0.016 0.122-0.038 0.048-0.048 0.051-0.173 0.006-0.202-0.019-0.010-0.032 0.016-0.032 0.061s-0.013 0.090-0.032 0.099c-0.019 0.013-0.032-0.022-0.032-0.077 0-0.074-0.016-0.099-0.058-0.099-0.032 0-0.074 0.016-0.096 0.038zM0.736 29.923c0 0.035-0.013 0.054-0.032 0.045-0.016-0.010-0.032-0.042-0.032-0.067s0.016-0.045 0.032-0.045c0.019 0 0.032 0.029 0.032 0.067z"></path>
<path d="M0.63 30.205c-0.026 0.070-0.058 0.099-0.109 0.099-0.045 0-0.074 0.019-0.074 0.048 0 0.074 0.442 0.070 0.47-0.006 0.032-0.083-0.061-0.218-0.16-0.227-0.077-0.010-0.096 0.006-0.128 0.086zM0.826 30.214c0.061 0.061 0.045 0.090-0.058 0.090-0.058 0-0.096-0.016-0.096-0.042 0-0.090 0.086-0.115 0.154-0.048z"></path>
<path d="M0.659 30.515c-0.061 0.058-0.064 0.090-0.019 0.176 0.067 0.125 0.288 0.051 0.288-0.096 0-0.051-0.096-0.131-0.16-0.131-0.032 0-0.083 0.022-0.109 0.051zM0.848 30.608c0 0.070-0.099 0.106-0.15 0.054-0.054-0.054-0.003-0.141 0.077-0.128 0.048 0.006 0.074 0.032 0.074 0.074z"></path>
<path d="M0.448 30.88c0 0.016 0.035 0.032 0.080 0.032 0.048 0 0.080 0.019 0.080 0.045 0 0.144 0.234 0.198 0.294 0.070 0.064-0.144 0.019-0.179-0.23-0.179-0.128 0-0.224 0.013-0.224 0.032zM0.858 30.966c-0.006 0.038-0.038 0.058-0.090 0.058s-0.083-0.019-0.090-0.058c-0.010-0.042 0.010-0.054 0.090-0.054s0.099 0.013 0.090 0.054z"></path>
<path d="M0.704 31.213c-0.218 0.077-0.285 0.157-0.154 0.189 0.042 0.006 0.141 0.038 0.227 0.064 0.090 0.029 0.15 0.035 0.15 0.016 0-0.016-0.029-0.038-0.064-0.048-0.042-0.013-0.064-0.045-0.064-0.096s0.022-0.086 0.064-0.096c0.035-0.010 0.064-0.038 0.064-0.061 0-0.026-0.003-0.045-0.006-0.042-0.006 0-0.102 0.035-0.218 0.074zM0.73 31.354c-0.003 0.016-0.045 0.016-0.090 0.003l-0.080-0.019 0.080-0.032c0.077-0.032 0.115-0.010 0.090 0.048z"></path>
</svg>
